<?xml version="1.0" encoding="UTF-8" standalone="no"?>
<svg
   xmlns:dc="http://purl.org/dc/elements/1.1/"
   xmlns:cc="http://creativecommons.org/ns#"
   xmlns:rdf="http://www.w3.org/1999/02/22-rdf-syntax-ns#"
   xmlns:svg="http://www.w3.org/2000/svg"
   xmlns="http://www.w3.org/2000/svg"
   viewBox="0 0 1068 562.66669"
   height="562.66669"
   width="1068"
   xml:space="preserve"
   id="svg2"
   version="1.1"><metadata
     id="metadata8"><rdf:RDF><cc:Work
         rdf:about=""><dc:format>image/svg+xml</dc:format><dc:type
           rdf:resource="http://purl.org/dc/dcmitype/StillImage" /></cc:Work></rdf:RDF></metadata><defs
     id="defs6" /><g
     transform="matrix(1.3333333,0,0,-1.3333333,0,562.66667)"
     id="g10"><g
       transform="scale(0.1)"
       id="g12"><path
         id="path14"
         style="fill:#251b1c;fill-opacity:1;fill-rule:nonzero;stroke:none"
         d="m 2715.3,2273.02 c -98.43,-3.74 -196.21,-15.03 -293.95,-26.42 -225.56,-26.29 -449.99,-60.98 -674.93,-91.89 -157.56,-21.65 -315.36,-41.15 -475.64,-54.59 123.87,77.68 247.74,155.37 371.61,233.06 -0.41,1.33 -0.83,2.66 -1.24,3.99 C 1094.49,2259.16 547.84,2181.16 1.18359,2103.16 c -0.394527,2.03 -0.792965,4.07 -1.18359,6.1 53.3594,13.43 106.668,27.06 160.086,40.23 356.906,88.04 713.832,176.01 1072.954,254.72 320.91,70.35 643.04,134.32 967.7,185.19 181.44,28.42 363.21,54.14 545.82,73.78 4.77,0.51 9.39,2.53 14.08,3.85 63.54,5.39 127.08,10.78 190.62,16.17 21.24,1.8 42.49,3.6 63.74,5.39 239.66,20.19 479.75,30 720.27,29.09 12,-0.05 21.85,-3.07 31.91,-9.71 157.52,-103.76 310.42,-213.94 459.57,-329.34 218.75,-169.24 427.3,-350.67 634.91,-533.18 21.29,-18.72 42.88,-37.1 65.95,-57.04 17.5,76.13 34.06,148.75 50.89,221.3 51.81,223.19 101.27,447 172.58,665.11 47.39,144.95 101.27,287.16 186.06,415.4 16.68,25.23 32.37,51.77 56.21,71.03 78.44,63.39 159.24,123.67 241.54,182.02 86.16,61.1 175.52,117.35 263.68,175.42 16.86,7.44 32.2,17.32 46.48,28.91 66.9,37.9 133.46,76.43 200.77,113.61 353.78,195.47 723.75,355.25 1101.18,498.51 45.59,17.31 91.39,34.13 141.42,52.8 -5.83,-15.57 -16.68,-18.15 -24.79,-22.98 -246.95,-147 -495.68,-291.04 -739.42,-443.41 -173.14,-108.24 -342.07,-222.52 -500.54,-351.64 -10.14,-8.26 -19.68,-17.24 -29.49,-25.9 -9.44,-8.2 -18.87,-16.39 -28.3,-24.59 -64.84,-50.6 -123.03,-108.41 -180.22,-167.19 -272.48,-280.05 -445.33,-614.73 -542.61,-990.82 -33.46,-129.37 -58.81,-260.32 -78.24,-397.47 322.42,102.15 643.61,200.93 982.09,225.09 0.64,-10.18 -7.35,-13.18 -11.67,-18.37 -211.39,-254.8 -491.07,-406.48 -792.87,-524.61 -274.93,-107.61 -558.22,-188.21 -843.88,-261.27 -258.73,-66.19 -519.66,-122.79 -780.14,-181.4 -6.29,-1.42 -12.76,-2 -22.59,-3.51 50.31,80.63 99.12,158.84 149.32,239.29 -23.06,-0.52 -41.6,-8.92 -60.7,-14.35 -203.17,-57.69 -406.27,-115.6 -609.37,-173.53 -3.9,-1.11 -7.54,-3.11 -11.31,-4.71 -23.56,-5.33 -47.05,-10.88 -69.32,-20.56 -22.51,-0.21 -42.43,-14.98 -68.21,-12.92 20.11,9.63 37.56,17.98 55.01,26.33 22.06,7.3 43.61,15.78 63.75,27.5 6.9,2.37 13.98,4.29 20.66,7.17 218.58,94.38 437.12,188.83 655.66,283.3 99.75,43.13 199.48,86.29 298.87,129.29 -0.78,8.67 -6.79,12.43 -10.93,17.28 -53.35,62.38 -108.74,122.92 -166.42,181.32 -165.14,167.23 -346.39,312.79 -555.06,423.57 -190.51,101.14 -392.47,148.78 -607.46,144.14 -55.1,2.68 -110,-1.29 -164.94,-4.55" /><path
         id="path16"
         style="fill:#ed1c24;fill-opacity:1;fill-rule:nonzero;stroke:none"
         d="m 2951.26,2683.2 c -63.54,-5.39 -127.08,-10.78 -190.62,-16.17 24.52,122.6 64.3,240.36 115.1,354.3 147.25,330.24 370.55,597.81 668.85,801.74 222.82,152.33 467.82,251.77 734.18,298.06 155.17,26.96 311.15,36.3 468.12,23.07 217.79,-18.35 425.05,-75.81 621.95,-170.74 218.99,-105.56 410.35,-248.44 576.21,-425.85 -14.28,-11.6 -29.62,-21.48 -46.48,-28.92 -133.25,118.14 -278.61,218.37 -440.03,294.17 -315.82,148.28 -646.98,202.37 -993.72,160.52 -198.66,-23.98 -388.32,-78.9 -567.36,-167.72 -401.23,-199.06 -692.22,-504.53 -873.17,-914.22 -29.73,-67.33 -56.43,-136.12 -73.03,-208.24" /><path
         id="path18"
         style="fill:#ed1c24;fill-opacity:1;fill-rule:nonzero;stroke:none"
         d="m 3244.92,1091.5 c -20.14,-11.72 -41.69,-20.2 -63.75,-27.5 -113.01,126.87 -206.64,266.76 -281.78,419.1 -122.83,248.98 -184.61,512.2 -184.1,789.93 54.95,3.25 109.85,7.22 164.95,4.55 -1.18,-79.45 -2.37,-158.81 3.85,-238.25 13.12,-167.5 49.27,-329.67 107.66,-487.04 61.64,-166.11 148.05,-318.59 253.17,-460.79" /><path
         id="path20"
         style="fill:#ed1c24;fill-opacity:1;fill-rule:nonzero;stroke:none"
         d="m 3194.37,1050.59 c 22.27,9.68 45.76,15.23 69.32,20.56 67.87,-91.142 146.87,-171.861 232.01,-246.74 169.17,-148.824 360.16,-261.07 571.05,-339.82 0.11,-2.559 0.21,-5.121 0.31,-7.684 -335.55,112.645 -622.8,299.672 -862.35,560.114 -3.83,4.17 -6.91,9.03 -10.34,13.57" /><path
         id="path22"
         style="fill:#ed1c24;fill-opacity:1;fill-rule:nonzero;stroke:none"
         d="m 6065.88,3344 c 9.43,8.2 18.86,16.39 28.3,24.59 129.01,-173.55 227.97,-362.79 296.25,-568.03 -2.57,0.05 -5.13,0.09 -7.69,0.14 -60.27,159.81 -139.29,309.56 -241.2,446.84 -24.36,32.8 -50.4,64.34 -75.66,96.46" /><path
         id="path24"
         style="fill:#f14a55;fill-opacity:1;fill-rule:nonzero;stroke:none"
         d="m 6382.74,2800.7 c 2.56,-0.05 5.12,-0.09 7.69,-0.14 20.46,-52.46 33.61,-106.97 43.31,-162.53 -17,54.22 -34,108.45 -51,162.67" /><path
         id="path26"
         style="fill:#f14a55;fill-opacity:1;fill-rule:nonzero;stroke:none"
         d="m 4067.06,476.906 c -0.1,2.563 -0.2,5.125 -0.31,7.684 53.39,-16.735 106.77,-33.465 160.15,-50.168 -54.58,9.469 -108.23,22.187 -159.84,42.484" /><path
         id="path28"
         style="fill:#131212;fill-opacity:1;fill-rule:nonzero;stroke:none"
         d="m 4861.39,657.512 h 96.9 v -75.051 h 251.75 c 76,0 129.2,-14.25 159.6,-41.801 38.95,-35.148 57.95,-102.597 57.95,-200.449 0,-99.75 -19,-168.148 -57.95,-207.102 -32.3,-32.296 -85.5,-48.4488 -159.6,-48.4488 H 4958.29 V 6.76172 h -96.9 V 84.6602 h -252.7 c -74.1,0 -127.3,16.1528 -159.6,48.4488 -38.95,38.954 -57.95,107.352 -57.95,207.102 0,99.75 19,166.25 57.95,201.398 30.4,27.551 83.6,40.852 159.6,40.852 h 252.7 z m -252.7,-162.453 c -43.7,0 -75.05,-10.446 -93.1,-32.297 -18.05,-21.852 -27.55,-62.699 -27.55,-122.551 0,-61.75 9.5,-104.5 28.5,-129.199 18.05,-25.653 49.4,-38 92.15,-38 h 252.7 v 322.047 z m 601.35,-322.047 c 43.7,0 75.05,12.347 94.05,38 18.05,24.699 27.55,67.449 27.55,129.199 0,59.852 -9.5,100.699 -27.55,122.551 -18.05,21.851 -49.4,32.297 -94.05,32.297 H 4958.29 V 173.012 Z M 5680.29,6.76172 V 242.359 h 429.4 c 58.9,0 105.45,17.102 138.7,51.301 33.25,34.203 49.4,85.5 49.4,155.801 0,70.301 -16.15,122.551 -48.45,156.75 -33.25,34.203 -77.9,51.301 -135.85,51.301 h -530.1 V 6.76172 Z m 0,563.34728 h 428.45 c 29.45,0 52.25,-9.496 68.4,-29.449 16.15,-19 23.75,-49.398 23.75,-91.199 0,-41.797 -8.55,-72.199 -24.7,-91.199 -16.15,-19 -38.95,-28.5 -66.5,-28.5 h -429.4 z M 6553.34,6.76172 V 306.012 h 96.9 L 7079.64,6.76172 h 159.6 L 6753.79,350.66 l 456,306.852 h -166.25 l -393.3,-264.098 h -96.9 v 264.098 h -96.9 V 6.76172 Z m 769.5,563.34728 h 291.65 V 6.76172 h 96.9 V 570.109 h 290.7 v 87.403 h -679.25 v -87.403" /></g></g></svg>